<?xml version="1.0" encoding="UTF-8"?>
<svg width="350px" height="464px" viewBox="0 0 350 464" version="1.1" xmlns="http://www.w3.org/2000/svg" xmlns:xlink="http://www.w3.org/1999/xlink">
    <title>Logo Shape</title>
    <g id="Logo-Shape" stroke="none" stroke-width="1" fill="none" fill-rule="evenodd">
        <path d="M175.680934,0 C218.806744,0 252.626459,4.99657367 277.140078,14.989721 C301.653696,24.9828683 318.904021,39.6319139 328.891051,58.9368576 C338.87808,78.2418013 343.871595,101.975526 343.871595,130.138032 C343.871595,151.487029 339.785992,170.22418 331.614786,186.349486 C323.44358,202.474792 311.867704,215.079785 296.88716,224.164464 C292.445845,226.857819 287.765126,229.151921 282.845002,231.046771 L282.910932,231.024093 C291.799775,233.541795 299.636209,237.046735 306.420233,241.538913 C321.854734,251.759178 332.976654,265.045521 339.785992,281.397944 C346.595331,297.750367 350,315.011258 350,333.180617 C350,377.241312 336.608301,410.059716 309.824903,431.63583 C283.041505,453.211943 242.639429,464 188.618677,464 L0,464 L0,0 L175.680934,0 Z M162.523474,232 C147.341941,232 134.548513,237.035065 124.143192,247.105196 C113.737872,257.175327 108.535211,269.720321 108.535211,284.740177 C108.535211,304.197719 116.381847,318.961555 132.075117,329.031686 L107,434 L159.197183,434 L194.762911,353.353612 C201.586072,337.651035 206.831377,324.722011 210.498826,314.56654 C214.166275,304.411069 216,294.639628 216,285.252218 C216,270.061681 210.882629,257.388678 200.647887,247.233207 C190.413146,237.077736 177.705008,232 162.523474,232 Z M161.759524,89 C151.724603,89 142.554762,91.5147176 134.25,96.5441527 C125.945238,101.573588 119.327381,108.207239 114.396429,116.445107 C109.465476,124.682975 107,133.74463 107,143.630072 C107,158.371519 112.320238,171.118536 122.960714,181.871122 C133.60119,192.623707 146.534127,198 161.759524,198 C176.984921,198 189.831349,192.623707 200.29881,181.871122 C210.76627,171.118536 216,158.371519 216,143.630072 C216,128.888624 210.76627,116.09825 200.29881,105.25895 C189.831349,94.41965 176.984921,89 161.759524,89 Z" id="Combined-Shape" fill="#000000" fill-rule="nonzero"></path>
    </g>
</svg>