<?xml version="1.0" encoding="UTF-8"?>
<svg width="265px" height="36px" viewBox="0 0 265 36" version="1.1" xmlns="http://www.w3.org/2000/svg" xmlns:xlink="http://www.w3.org/1999/xlink">
    <title>Title (flat)</title>
    <g id="Title-(flat)" stroke="none" stroke-width="1" fill="none" fill-rule="evenodd">
        <path d="M56.5709375,28.3459375 C55.2815625,28.3459375 54.1545313,28.0297656 53.1898438,27.3974219 C52.2251563,26.7650781 51.4716406,25.8719531 50.9292969,24.7180469 C50.3869531,23.5641406 50.1157812,22.208125 50.1157812,20.65 C50.1157812,19.038125 50.383125,17.6603125 50.9178125,16.5165625 C51.4525,15.3728125 52.2003125,14.4992969 53.16125,13.8960156 C54.1221875,13.2927344 55.2510938,12.9910938 56.5479687,12.9910938 C57.8851563,12.9910938 59.0625781,13.31375 60.0802344,13.9590625 C61.0978906,14.604375 61.8924219,15.5027344 62.4638281,16.6541406 C63.0352344,17.8055469 63.3209375,19.1375 63.3209375,20.65 C63.3209375,22.1546875 63.0371094,23.4877344 62.4694531,24.6491406 C61.9017969,25.8105469 61.1129688,26.7170313 60.1029688,27.3685937 C59.0929688,28.0201563 57.915625,28.3459375 56.5709375,28.3459375 Z M48.6790625,28 L48.6790625,7.57 L52.6090625,7.57 L52.6090625,17.179375 L52.3203125,17.179375 L52.3203125,24.5204687 L52.6090625,24.5204687 L51.6246875,28 L48.6790625,28 Z M55.86875,24.7210938 C56.8790625,24.7210938 57.7067969,24.3441406 58.3519531,23.5902344 C58.9971094,22.8363281 59.3196875,21.85625 59.3196875,20.65 C59.3196875,19.45625 58.9971094,18.4835156 58.3519531,17.7317969 C57.7067969,16.9800781 56.8790625,16.6042188 55.86875,16.6042188 C54.870625,16.6042188 54.0451562,16.9800781 53.3923438,17.7317969 C52.7395312,18.4835156 52.413125,19.4625 52.413125,20.66875 C52.413125,21.8746875 52.7395312,22.8515625 53.3923438,23.599375 C54.0451562,24.3471875 54.870625,24.7210938 55.86875,24.7210938 Z M72.1985132,28.3459375 C70.6925757,28.3459375 69.3647632,28.0232813 68.2150757,27.3779688 C67.0653882,26.7326563 66.1709351,25.8342969 65.5317163,24.6828906 C64.8924976,23.5314844 64.5728882,22.2014063 64.5728882,20.6926563 C64.5728882,19.1642188 64.8924976,17.8242969 65.5317163,16.6728906 C66.1709351,15.5214844 67.0653882,14.62 68.2150757,13.9684375 C69.3647632,13.316875 70.6925757,12.9910938 72.1985132,12.9910938 C73.7250757,12.9910938 75.0617163,13.316875 76.2084351,13.9684375 C77.3551538,14.62 78.2492163,15.5214844 78.8906226,16.6728906 C79.5320288,17.8242969 79.8527319,19.1642188 79.8527319,20.6926563 C79.8527319,22.2014063 79.5320288,23.5314844 78.8906226,24.6828906 C78.2492163,25.8342969 77.3551538,26.7326563 76.2084351,27.3779688 C75.0617163,28.0232813 73.7250757,28.3459375 72.1985132,28.3459375 Z M72.2008569,24.5359375 C73.2902319,24.5359375 74.1729663,24.1797656 74.8490601,23.4674219 C75.5251538,22.7550781 75.8632007,21.8259375 75.8632007,20.68 C75.8632007,19.5171875 75.5251538,18.5780469 74.8490601,17.8625781 C74.1729663,17.1471094 73.2902319,16.789375 72.2008569,16.789375 C71.1277319,16.789375 70.2550757,17.1444531 69.5828882,17.8546094 C68.9107007,18.5647656 68.5746069,19.499375 68.5746069,20.6584375 C68.5746069,21.8171875 68.9107007,22.753125 69.5828882,23.46625 C70.2550757,24.179375 71.1277319,24.5359375 72.2008569,24.5359375 Z M86.1176196,26.6453125 L80.2587134,13.3370312 L84.2810571,13.3370312 L89.7209009,25.7148438 L86.1176196,26.6453125 Z M82.7482446,33.7 L91.7126196,13.3370313 L95.7349634,13.3370313 L86.7705884,33.7 L82.7482446,33.7 Z M101.260988,28.15 C100.595675,28.15 99.9883313,28.0096875 99.4389563,27.7290625 C98.8895813,27.4484375 98.4502063,27.0145312 98.1208313,26.4273437 C97.7914563,25.8401563 97.6267688,25.0779687 97.6267688,24.1407813 L97.6267688,7.57 L101.519738,7.57 L101.519738,22.7579688 C101.519738,23.4545312 101.659425,23.9089844 101.9388,24.1213281 C102.218175,24.3336719 102.565519,24.4398437 102.980831,24.4398437 L102.980831,27.941875 C102.758956,28.01125 102.490363,28.0632813 102.17505,28.0979687 C101.859738,28.1326562 101.55505,28.15 101.260988,28.15 Z M111.915291,28.28875 C110.464666,28.28875 109.191697,27.975625 108.096384,27.349375 C107.001072,26.723125 106.149587,25.84 105.541931,24.7 C104.934275,23.56 104.630447,22.2223438 104.630447,20.6870313 C104.630447,19.1623438 104.934275,17.8242969 105.541931,16.6728906 C106.149587,15.5214844 107.001072,14.62 108.096384,13.9684375 C109.191697,13.316875 110.464666,12.9910938 111.915291,12.9910938 C113.401228,12.9910938 114.6899,13.3244531 115.781306,13.9911719 C116.872712,14.6578906 117.718416,15.5650781 118.318416,16.7127344 C118.918416,17.8603906 119.218416,19.17375 119.218416,20.6528125 C119.218416,20.876875 119.211541,21.0925781 119.197791,21.2999219 C119.184041,21.5072656 119.163259,21.6785938 119.135447,21.8139063 L107.859197,21.8139063 L107.859197,18.878125 L116.172009,18.878125 L115.549978,20.2965625 C115.549978,19.0596875 115.253962,18.0469531 114.661931,17.2583594 C114.0699,16.4697656 113.162009,16.0754688 111.938259,16.0754688 C110.843572,16.0754688 109.970212,16.4130469 109.318181,17.0882031 C108.66615,17.7633594 108.340134,18.656875 108.340134,19.76875 L108.340134,21.3742188 C108.340134,22.5535938 108.671462,23.4789844 109.334119,24.1503906 C109.996775,24.8217969 110.914509,25.1575 112.087322,25.1575 C113.106697,25.1575 113.903806,24.9476563 114.47865,24.5279688 C115.053494,24.1082813 115.550291,23.5859375 115.969041,22.9609375 L118.701384,24.53125 C118.052009,25.7378125 117.161697,26.6657031 116.030447,27.3149219 C114.899197,27.9641406 113.527478,28.28875 111.915291,28.28875 Z M127.71314,28.25875 C126.203452,28.25875 125.014312,27.8646094 124.145718,27.0763281 C123.277124,26.2880469 122.842827,25.0234375 122.842827,23.2825 L122.842827,13.5170313 L122.808608,13.3370313 L123.596577,9.88796875 L126.772827,9.88796875 L126.772827,22.6539063 C126.772827,23.2979688 126.927358,23.7638281 127.236421,24.0514844 C127.545483,24.3391406 127.94689,24.4829688 128.44064,24.4829688 C128.757515,24.4829688 129.047905,24.4591406 129.311812,24.4114844 C129.575718,24.3638281 129.803765,24.31 129.995952,24.25 L129.995952,27.9240625 C129.674702,28.0271875 129.332358,28.10875 128.968921,28.16875 C128.605483,28.22875 128.18689,28.25875 127.71314,28.25875 Z M120.569858,16.958125 L120.569858,13.3370313 L129.995952,13.3370313 L129.995952,16.958125 L120.569858,16.958125 Z M139.252347,28.25875 C137.74266,28.25875 136.553519,27.8646094 135.684926,27.0763281 C134.816332,26.2880469 134.382035,25.0234375 134.382035,23.2825 L134.382035,13.5170313 L134.347816,13.3370313 L135.135785,9.88796875 L138.312035,9.88796875 L138.312035,22.6539063 C138.312035,23.2979688 138.466566,23.7638281 138.775629,24.0514844 C139.084691,24.3391406 139.486097,24.4829688 139.979847,24.4829688 C140.296722,24.4829688 140.587113,24.4591406 140.851019,24.4114844 C141.114926,24.3638281 141.342972,24.31 141.53516,24.25 L141.53516,27.9240625 C141.21391,28.0271875 140.871566,28.10875 140.508129,28.16875 C140.144691,28.22875 139.726097,28.25875 139.252347,28.25875 Z M132.109066,16.958125 L132.109066,13.3370313 L141.53516,13.3370313 L141.53516,16.958125 L132.109066,16.958125 Z M157.549993,28.391875 C156.430618,28.391875 155.362571,28.1595313 154.345852,27.6948438 C153.329133,27.2301563 152.431868,26.4292188 151.654055,25.2920313 L154.071868,23.1953125 C154.708118,23.9121875 155.318352,24.4260938 155.902571,24.7370313 C156.48679,25.0479688 157.15593,25.2034375 157.909993,25.2034375 C158.41218,25.2034375 158.811555,25.084375 159.108118,24.84625 C159.40468,24.608125 159.552961,24.3140625 159.552961,23.9640625 C159.552961,23.7053125 159.47179,23.4807813 159.309446,23.2904688 C159.147102,23.1001563 158.850149,22.9172656 158.418586,22.7417969 C158.094915,22.6101953 157.662522,22.4694971 157.121409,22.3197021 L156.544055,22.166875 C155.027493,21.779375 153.890696,21.2411719 153.133665,20.5522656 C152.376633,19.8633594 151.998118,18.8832813 151.998118,17.6120313 C151.998118,16.7585938 152.217258,15.9789063 152.65554,15.2729688 C153.093821,14.5670313 153.727336,14.0007031 154.556086,13.5739844 C155.384836,13.1472656 156.365149,12.9339063 157.497024,12.9339063 C158.852024,12.9339063 160.002024,13.1965625 160.947024,13.721875 C161.892024,14.2471875 162.660461,14.8789063 163.252336,15.6170313 L160.67843,17.7404688 C160.298743,17.3498438 159.812102,17.0025 159.218508,16.6984375 C158.624915,16.394375 157.92968,16.2423438 157.132805,16.2423438 C156.686243,16.2423438 156.293196,16.3440625 155.953665,16.5475 C155.614133,16.7509375 155.444368,17.0375 155.444368,17.4071875 C155.444368,17.7696875 155.629758,18.0695313 156.00054,18.3067188 C156.309524,18.504375 156.858905,18.7083247 157.648684,18.9185677 L158.151399,19.0454688 C159.949524,19.4732813 161.237727,20.0470313 162.016008,20.7667188 C162.79429,21.4864063 163.18343,22.4460938 163.18343,23.6457813 C163.18343,24.6057813 162.932727,25.4421875 162.431321,26.155 C161.929915,26.8678125 161.255461,27.4188281 160.407961,27.8080469 C159.560461,28.1972656 158.607805,28.391875 157.549993,28.391875 Z M172.424229,28.3459375 C170.918291,28.3459375 169.590479,28.0232813 168.440791,27.3779688 C167.291104,26.7326563 166.39665,25.8342969 165.757432,24.6828906 C165.118213,23.5314844 164.798604,22.2014063 164.798604,20.6926563 C164.798604,19.1642188 165.118213,17.8242969 165.757432,16.6728906 C166.39665,15.5214844 167.291104,14.62 168.440791,13.9684375 C169.590479,13.316875 170.918291,12.9910938 172.424229,12.9910938 C173.950791,12.9910938 175.287432,13.316875 176.43415,13.9684375 C177.580869,14.62 178.474932,15.5214844 179.116338,16.6728906 C179.757744,17.8242969 180.078447,19.1642188 180.078447,20.6926563 C180.078447,22.2014063 179.757744,23.5314844 179.116338,24.6828906 C178.474932,25.8342969 177.580869,26.7326563 176.43415,27.3779688 C175.287432,28.0232813 173.950791,28.3459375 172.424229,28.3459375 Z M172.426572,24.5359375 C173.515947,24.5359375 174.398682,24.1797656 175.074775,23.4674219 C175.750869,22.7550781 176.088916,21.8259375 176.088916,20.68 C176.088916,19.5171875 175.750869,18.5780469 175.074775,17.8625781 C174.398682,17.1471094 173.515947,16.789375 172.426572,16.789375 C171.353447,16.789375 170.480791,17.1444531 169.808604,17.8546094 C169.136416,18.5647656 168.800322,19.499375 168.800322,20.6584375 C168.800322,21.8171875 169.136416,22.753125 169.808604,23.46625 C170.480791,24.179375 171.353447,24.5359375 172.426572,24.5359375 Z M183.156736,28 L183.156736,12.2298437 C183.156736,11.1392187 183.349705,10.2214062 183.735642,9.47640625 C184.12158,8.73140625 184.666658,8.16523437 185.370876,7.77789062 C186.075095,7.39054687 186.906892,7.196875 187.866267,7.196875 C188.350642,7.196875 188.779626,7.22875 189.15322,7.2925 C189.526814,7.35625 189.835955,7.42046875 190.080642,7.48515625 L190.080642,11.0790625 C189.891267,11.0390625 189.69158,11.0002344 189.48158,10.9625781 C189.27158,10.9249219 189.018923,10.9060937 188.723611,10.9060937 C188.237673,10.9060937 187.84533,11.0510937 187.54658,11.3410937 C187.24783,11.6310937 187.098455,12.103125 187.098455,12.7571875 L187.098455,28 L183.156736,28 Z M189.768923,17.2567187 L181.079236,17.2567187 L181.079236,13.646875 L189.768923,13.646875 L189.768923,17.2567187 Z M198.198531,28.25875 C196.688844,28.25875 195.499703,27.8646094 194.63111,27.0763281 C193.762516,26.2880469 193.328219,25.0234375 193.328219,23.2825 L193.328219,13.5170313 L193.294,13.3370313 L194.081969,9.88796875 L197.258219,9.88796875 L197.258219,22.6539063 C197.258219,23.2979688 197.41275,23.7638281 197.721813,24.0514844 C198.030875,24.3391406 198.432281,24.4829688 198.926031,24.4829688 C199.242906,24.4829688 199.533297,24.4591406 199.797203,24.4114844 C200.06111,24.3638281 200.289156,24.31 200.481344,24.25 L200.481344,27.9240625 C200.160094,28.0271875 199.81775,28.10875 199.454313,28.16875 C199.090875,28.22875 198.672281,28.25875 198.198531,28.25875 Z M191.05525,16.958125 L191.05525,13.3370313 L200.481344,13.3370313 L200.481344,16.958125 L191.05525,16.958125 Z M206.647271,28 L202.165083,13.3370313 L206.037427,13.3370313 L209.159302,24.5204688 L207.993989,24.5204688 L211.586021,13.3370313 L214.786646,13.3370313 L218.390396,24.5204688 L217.225083,24.5204688 L220.346958,13.3370313 L224.115708,13.3370313 L219.622271,28 L216.142271,28 L212.650083,17.4882812 L213.722583,17.4882812 L210.230396,28 L206.647271,28 Z M229.809552,28.40875 C228.723302,28.40875 227.774005,28.2049219 226.961661,27.7972656 C226.149318,27.3896094 225.522365,26.8126562 225.080802,26.0664062 C224.63924,25.3201562 224.418458,24.4460937 224.418458,23.4442187 C224.418458,22.4385937 224.651896,21.5664844 225.118771,20.8278906 C225.585646,20.0892969 226.22713,19.5133594 227.043224,19.1000781 C227.859318,18.6867969 228.789083,18.4801562 229.832521,18.4801562 C231.263146,18.4801562 232.422599,18.8047656 233.31088,19.4539844 C234.199161,20.1032031 234.79799,21.0275 235.107365,22.226875 L233.278302,21.9971875 L233.278302,18.465625 C233.278302,17.8990625 233.081661,17.3960156 232.68838,16.9564844 C232.295099,16.5169531 231.645021,16.2971875 230.738146,16.2971875 C230.185646,16.2971875 229.566818,16.3640625 228.881661,16.4978125 C228.196505,16.6315625 227.482365,16.87375 226.73924,17.224375 L225.586583,14.351875 C226.445021,13.92875 227.358224,13.5961719 228.326193,13.3541406 C229.294161,13.1121094 230.270802,12.9910937 231.256115,12.9910937 C232.585177,12.9910937 233.692208,13.2307031 234.577208,13.7099219 C235.462208,14.1891406 236.123849,14.848125 236.56213,15.686875 C237.000411,16.525625 237.219552,17.4939062 237.219552,18.5917187 L237.219552,28 L234.095333,28 L233.264708,25.2151562 L235.107365,24.6620312 C234.77049,25.8573437 234.149708,26.780625 233.245021,27.431875 C232.340333,28.083125 231.195177,28.40875 229.809552,28.40875 Z M230.900802,25.4171875 C231.619865,25.4171875 232.199708,25.2389844 232.640333,24.8825781 C233.080958,24.5261719 233.301271,24.0467187 233.301271,23.4442187 C233.301271,22.8298437 233.080958,22.3475 232.640333,21.9971875 C232.199708,21.646875 231.619865,21.4717187 230.900802,21.4717187 C230.166115,21.4717187 229.580411,21.646875 229.143693,21.9971875 C228.706974,22.3475 228.488615,22.8298437 228.488615,23.4442187 C228.488615,24.0467187 228.706974,24.5261719 229.143693,24.8825781 C229.580411,25.2389844 230.166115,25.4171875 230.900802,25.4171875 Z M243.323043,13.3370313 L244.318668,17.3659375 L244.318668,28 L240.388668,28 L240.388668,13.3370313 L243.323043,13.3370313 Z M243.524137,19.399375 L242.781168,19.069375 L242.781168,16.0642188 L243.062418,15.7229688 C243.285543,15.3704688 243.619762,14.9816406 244.065074,14.5564844 C244.510387,14.1313281 245.030699,13.7641406 245.626012,13.4549219 C246.221324,13.1457031 246.834293,12.9910938 247.464918,12.9910938 C247.780231,12.9910938 248.069059,13.0130469 248.331403,13.0569531 C248.593746,13.1008594 248.798668,13.1728125 248.946168,13.2728125 L248.946168,16.8334375 L247.981949,16.8334375 C246.675387,16.8334375 245.675778,17.0403906 244.983121,17.4542969 C244.290465,17.8682031 243.804137,18.5165625 243.524137,19.399375 Z M256.831246,28.28875 C255.380621,28.28875 254.107653,27.975625 253.01234,27.349375 C251.917028,26.723125 251.065543,25.84 250.457887,24.7 C249.850231,23.56 249.546403,22.2223438 249.546403,20.6870313 C249.546403,19.1623438 249.850231,17.8242969 250.457887,16.6728906 C251.065543,15.5214844 251.917028,14.62 253.01234,13.9684375 C254.107653,13.316875 255.380621,12.9910938 256.831246,12.9910938 C258.317184,12.9910938 259.605856,13.3244531 260.697262,13.9911719 C261.788668,14.6578906 262.634371,15.5650781 263.234371,16.7127344 C263.834371,17.8603906 264.134371,19.17375 264.134371,20.6528125 C264.134371,20.876875 264.127496,21.0925781 264.113746,21.2999219 C264.099996,21.5072656 264.079215,21.6785938 264.051403,21.8139063 L252.775153,21.8139063 L252.775153,18.878125 L261.087965,18.878125 L260.465934,20.2965625 C260.465934,19.0596875 260.169918,18.0469531 259.577887,17.2583594 C258.985856,16.4697656 258.077965,16.0754688 256.854215,16.0754688 C255.759528,16.0754688 254.886168,16.4130469 254.234137,17.0882031 C253.582106,17.7633594 253.25609,18.656875 253.25609,19.76875 L253.25609,21.3742188 C253.25609,22.5535938 253.587418,23.4789844 254.250074,24.1503906 C254.912731,24.8217969 255.830465,25.1575 257.003278,25.1575 C258.022653,25.1575 258.819762,24.9476563 259.394606,24.5279688 C259.969449,24.1082813 260.466246,23.5859375 260.884996,22.9609375 L263.61734,24.53125 C262.967965,25.7378125 262.077653,26.6657031 260.946403,27.3149219 C259.815153,27.9641406 258.443434,28.28875 256.831246,28.28875 Z" id="Shape" fill="#FFFFFF" fill-rule="nonzero"></path>
        <g id="Logo" transform="translate(5.0625, 3.5)" fill="#FFFFFF" fill-rule="nonzero">
            <path d="M10.9800584,0 C13.6754215,0 15.7891537,0.312285854 17.3212549,0.936857562 C18.853356,1.56142927 19.9315013,2.47699462 20.5556907,3.6835536 C21.17988,4.89011258 21.4919747,6.37347039 21.4919747,8.13362702 C21.4919747,9.4679393 21.2366245,10.6390113 20.7259241,11.6468429 C20.2152237,12.6546745 19.4917315,13.4424865 18.5554475,14.010279 C18.2778653,14.1786137 17.9853204,14.3219951 17.6778126,14.4404232 C18.2374859,14.5963622 18.727263,14.815421 19.1512646,15.0961821 C20.1159209,15.7349486 20.8110409,16.5653451 21.2366245,17.5873715 C21.6622082,18.6093979 21.875,19.6882036 21.875,20.8237885 C21.875,23.577582 21.0380188,25.6287323 19.3640564,26.9772394 C17.690094,28.3257465 15.1649643,29 11.7886673,29 L0,29 L0,0 L10.9800584,0 Z M10.1577171,14.5 C9.20887128,14.5 8.40928208,14.8146916 7.75894953,15.4440748 C7.10861698,16.073458 6.7834507,16.8575201 6.7834507,17.7962611 C6.7834507,19.0123574 7.27386541,19.9350972 8.25469484,20.5644804 L6.6875,27.125 L9.94982394,27.125 L12.1726819,22.0846008 C12.5991295,21.1031897 12.9269611,20.2951257 13.1561766,19.6604087 C13.3853922,19.0256918 13.5,18.4149768 13.5,17.8282636 C13.5,16.8788551 13.1801643,16.0867924 12.540493,15.4520754 C11.9008216,14.8173585 11.106563,14.5 10.1577171,14.5 Z M10.1099702,5.5625 C9.4827877,5.5625 8.90967262,5.71966985 8.390625,6.03400955 C7.87157738,6.34834924 7.45796131,6.76295247 7.14977679,7.27781921 C6.84159226,7.79268596 6.6875,8.35903938 6.6875,8.97687947 C6.6875,9.89821997 7.02001488,10.6949085 7.68504464,11.3669451 C8.3500744,12.0389817 9.15838294,12.375 10.1099702,12.375 C11.0615575,12.375 11.8644593,12.0389817 12.5186756,11.3669451 C13.1728919,10.6949085 13.5,9.89821997 13.5,8.97687947 C13.5,8.05553898 13.1728919,7.25614061 12.5186756,6.57868437 C11.8644593,5.90122812 11.0615575,5.5625 10.1099702,5.5625 Z" id="Combined-Shape"></path>
        </g>
    </g>
</svg>