<?xml version="1.0" encoding="UTF-8"?>
<svg width="312px" height="60px" viewBox="0 0 312 60" version="1.1" xmlns="http://www.w3.org/2000/svg" xmlns:xlink="http://www.w3.org/1999/xlink">
    <title>Logo (by Flavia Mayer)</title>
    <g id="Page-1" stroke="none" stroke-width="1" fill="none" fill-rule="evenodd">
        <g id="Desktop" transform="translate(-260, -168)" fill-rule="nonzero">
            <g id="Logo-(by-Flavia-Mayer)" transform="translate(260, 168)">
                <path d="M15.1541913,15.4278401 C13.9502186,15.4512336 12.7547452,15.6357 11.5994369,15.976353 C10.2953124,16.3329096 9.03715984,16.8409819 7.85053828,17.4902487 L7.85053828,3.09726962 L0,3.77742565 L0,46.1911872 L4.01687242,46.1911872 L5.96378404,43.6872257 C7.34479348,44.7260542 8.88657579,45.5302783 10.5275418,46.0677718 C12.0142519,46.5991676 13.5762907,46.8880604 15.1541913,46.923452 C19.3724998,46.923452 22.6683951,45.417784 25.0418772,42.4064481 C27.4153594,39.3951121 28.6002775,35.6515115 28.59664,31.175646 C28.59664,26.6997806 27.4408807,22.951609 25.1293789,19.9311312 C22.8178771,16.9106533 19.4928145,15.4095563 15.1541913,15.4278401 Z M18.8046506,37.1873476 C17.71088,39.1583374 15.8040733,40.1447465 13.0842305,40.1465748 C12.1804986,40.1377144 11.2850626,39.9725678 10.4373057,39.6583983 C9.53646143,39.3395319 8.6698506,38.9306634 7.85053828,38.4379571 L7.85053828,23.9023647 C8.65645649,23.3772091 9.52568351,22.9569689 10.4373057,22.6517552 C11.2892778,22.3571641 12.1830924,22.2025037 13.0842305,22.193747 C16.0447028,22.193747 18.0125784,23.1079352 18.9878571,24.9363116 C19.9832384,26.8574231 20.4851158,28.9972215 20.4480408,31.1619332 C20.4301871,33.279317 19.8638726,35.355683 18.8046506,37.1873476 L18.8046506,37.1873476 Z" id="Shape" fill="#FFFFFF"></path>
                <path d="M49.0501413,15.7926012 C44.3104688,15.7926012 40.5679505,17.1967942 37.8225864,20.0051804 C35.0772222,22.8135666 33.710009,26.5772794 33.7208816,31.2963189 C33.7208816,36.0500975 35.028914,39.8448927 37.6448486,42.6807045 C40.2607833,45.5165163 43.9021278,46.9307655 48.5688822,46.9234802 C53.3541285,46.9234802 57.2087583,45.5521697 60.1327716,42.8096051 C63.0567849,40.0670405 64.5151457,36.3334959 64.5078811,31.6089712 C64.5078811,26.8899317 63.1588702,23.0759386 60.4609028,20.1669917 C57.7629354,17.2580449 53.9593482,15.7999147 49.0501413,15.7926012 Z M54.2236761,38.1033642 C52.8017743,39.467333 50.955125,40.1484032 48.6837281,40.1465785 C46.3740493,40.1465785 44.6604754,39.394198 43.5430065,37.8894442 C42.4255375,36.3846904 41.8677145,34.1668698 41.869533,31.2359824 C41.869533,28.3105802 42.518508,26.1338981 43.8164491,24.7059361 C45.1143902,23.2779742 46.9200231,22.5658216 49.2333478,22.5694643 C51.5065677,22.5694643 53.261158,23.3730497 54.4971187,24.9801926 C55.7330795,26.5873354 56.3519713,28.7941858 56.3537943,31.6007435 C56.3537943,34.5736836 55.6437549,36.7412238 54.2236761,38.1033642 Z" id="Shape" fill="#FFFFFF"></path>
                <path d="M82.399206,34.5325451 L75.5822809,16.5879449 L67.4282213,17.6849707 L77.9557631,44.1150658 L76.56394,47.5953803 C76.0371072,48.9776329 74.9715923,50.1066553 73.3673955,50.9824476 C71.7631987,51.8582399 70.2519723,52.6005607 68.8337165,53.20941 L71.6419724,59.7394564 C74.3236013,59.0898909 76.8480611,57.9073709 79.0659402,56.2618844 C81.4175469,54.5505241 83.0582028,52.4954291 83.9879078,50.0965992 L97.192453,16.5879449 L88.8497179,16.5879449 L82.399206,34.5325451 Z" id="Path" fill="#FFFFFF"></path>
                <polygon id="Path" fill="#FFFFFF" points="101.690584 46.1911872 109.541123 46.1911872 109.541123 3.09726962 101.690584 3.76919795"></polygon>
                <path d="M131.082934,15.7926012 C126.498212,15.7926012 122.877832,17.2169064 120.221792,20.0655168 C117.565753,22.9141273 116.236822,26.6988664 116.234999,31.4197343 C116.234999,36.1406021 117.705209,39.904315 120.645628,42.7108727 C123.586048,45.5174305 127.612947,46.9216236 132.726324,46.923452 C134.361634,46.8689021 135.985011,46.6231521 137.563525,46.1911872 C139.378642,45.7733759 141.087938,44.9834149 142.583932,43.8709776 L140.276076,38.1335324 C139.057884,38.7033691 137.808008,39.2024265 136.532646,39.6282301 C135.359862,39.9878512 134.13853,40.1627143 132.912265,40.1465748 C130.598941,40.1465748 128.732239,39.5669795 127.31216,38.4077889 C125.884009,37.2320734 124.932242,35.5744436 124.635157,33.7454291 L144.533578,33.7454291 L144.533578,31.3045466 C144.533578,27.1139078 143.448922,23.4827523 141.27961,20.41108 C139.110299,17.3394076 135.711407,15.7999147 131.082934,15.7926012 Z M124.689845,28.4275963 C125.01433,26.516943 125.72437,25.0624695 126.819963,24.064176 C127.938339,23.0594426 129.39898,22.5243096 130.899728,22.5694783 C132.352232,22.5220787 133.767499,23.0354863 134.853708,24.0038396 C135.905551,24.9582521 136.634731,26.4328376 137.041249,28.4275963 L124.689845,28.4275963 Z" id="Shape" fill="#FFFFFF"></path>
                <path d="M189.200433,39.8421502 C188.679538,40.1095963 188.128788,40.3139804 187.559778,40.4509995 C187.040803,40.5729324 186.509568,40.6345883 185.976545,40.6347513 C184.556466,40.6347513 183.481836,40.1365188 182.752656,39.1400536 C182.023476,38.1435885 181.658885,36.8719527 181.658885,35.3251463 L181.658885,22.7504876 L189.449266,22.7504876 L187.015627,16.6482813 L181.653417,16.6482813 L181.653417,4.42467089 L173.802878,9.63554364 L173.802878,16.6537665 L159.017835,16.6537665 L159.017835,4.42467089 L151.164562,9.63554364 L151.164562,16.6537665 L147.210581,16.6537665 L147.210581,22.7559727 L151.164562,22.7559727 L151.164562,36.7430522 C151.164562,40.1602877 152.210024,42.7949781 154.300949,44.6471234 C156.391874,46.4992686 159.26211,47.4253413 162.911658,47.4253413 C163.995156,47.400524 165.069992,47.2251588 166.105468,46.904254 C167.105822,46.6543905 168.047146,46.2088898 168.875442,45.5933081 L166.562117,39.855863 C166.041389,40.123692 165.490592,40.3280934 164.921461,40.4647123 C164.402487,40.5866453 163.871251,40.6483011 163.338228,40.6484642 C161.91815,40.6484642 160.84352,40.1502316 160.11434,39.1537665 C159.385159,38.1573013 159.020569,36.8856655 159.020569,35.3388591 L159.020569,22.7504876 L173.805613,22.7504876 L173.805613,36.737567 C173.805613,40.1548025 174.850164,42.7894929 176.939265,44.6416382 C179.028367,46.4937835 181.898603,47.4198562 185.549974,47.4198562 C186.634352,47.3948693 187.710068,47.2195107 188.746519,46.8987689 C189.746059,46.6489765 190.686502,46.2034533 191.513758,45.587823 L189.200433,39.8421502 Z" id="Path" fill="#FFFFFF"></path>
                <path d="M311.214393,7.03742077 L311.214393,45.8419673 C311.212883,49.7290711 308.07069,52.8793881 304.19512,52.8793881 L211.659395,52.8793881 C207.784268,52.8793881 204.642857,49.7286275 204.642857,45.8419673 L204.642857,7.03742077 C204.642857,3.1507606 207.784268,0 211.659395,0 L304.19512,0 C308.07069,0 311.212883,3.15031701 311.214393,7.03742077 L311.214393,7.03742077 Z" id="Path" fill="#00D6AD"></path>
                <path d="M219.272039,35.8398342 C219.266166,34.9593749 219.612294,34.1132695 220.233039,33.4906768 C220.853784,32.8680842 221.697379,32.5209266 222.575226,32.5268162 C223.472295,32.503264 224.339179,32.8526376 224.970583,33.4921989 C225.600331,34.1082312 225.9486,34.9576773 225.933101,35.8398342 C225.948517,36.733253 225.60107,37.5945554 224.970583,38.2258654 C224.34576,38.878315 223.476994,39.2383941 222.575226,39.2186738 C221.688563,39.2376936 220.834915,38.8812805 220.223619,38.2368357 C219.594374,37.6010354 219.25074,36.7354316 219.272039,35.8398342 Z" id="Path" fill="#FFFFFF"></path>
                <path d="M250.050742,26.0845319 C250.050742,28.6936251 249.711674,30.8291687 249.033536,32.4911628 C248.355398,34.153157 247.457595,35.4330205 246.340126,36.3307533 C245.255984,37.2146193 243.996675,37.8568989 242.645916,38.2148952 C241.330364,38.5624854 239.975804,38.7394525 238.615371,38.7414676 L232.719948,38.7414676 L232.719948,13.6716086 L238.218879,13.6716086 C239.67849,13.6675486 241.133705,13.8322767 242.55568,14.1626036 C243.939512,14.4794964 245.237043,15.0974235 246.356532,15.9726962 C247.488585,16.8539737 248.3873,18.1073257 249.052677,19.7327523 C249.718054,21.3581789 250.050742,23.4754388 250.050742,26.0845319 Z M246.238964,26.0845319 C246.238964,23.9837275 246.023844,22.2970502 245.593627,21.0245002 C245.163411,19.7519503 244.591916,18.7929668 243.879142,18.14755 C243.211248,17.5306829 242.40294,17.0871914 241.524801,16.855802 C240.691465,16.6398263 239.834289,16.5301719 238.973581,16.5294369 L236.307515,16.5294369 L236.307515,35.9275963 L239.011863,35.9275963 C239.898705,35.9265041 240.779882,35.7858364 241.62324,35.5107265 C242.511256,35.2134213 243.31242,34.7009593 243.955706,34.0187713 C244.733576,33.1550349 245.301654,32.122504 245.615503,31.0019503 C246.032959,29.7239152 246.240775,28.0847757 246.238964,26.0845319 L246.238964,26.0845319 Z" id="Shape" fill="#FFFFFF"></path>
                <polygon id="Path" fill="#FFFFFF" points="259.613032 16.5102389 259.613032 24.5733788 268.79797 24.5733788 268.79797 27.425646 259.613032 27.425646 259.613032 35.9275963 270.84879 35.9275963 270.84879 38.7524378 256.017261 38.7524378 256.017261 13.6716845 270.589019 13.6716845 270.159714 16.5102389"></polygon>
                <polygon id="Path" fill="#FFFFFF" points="284.386935 34.9841541 290.810103 13.6716845 294.457828 13.6716845 286.273689 38.7524378 282.355256 38.7524378 274.168384 13.6716845 278.034862 13.6716845"></polygon>
            </g>
        </g>
    </g>
</svg>